<svg width="7" height="12" viewBox="0 0 7 12" fill="none" xmlns="http://www.w3.org/2000/svg">
<path d="M1.50857 11.4811C1.29525 11.4811 1.11289 11.4071 0.961494 11.2592C0.810102 11.1112 0.734406 10.9306 0.734406 10.7172C0.734406 10.5039 0.813543 10.3181 0.971817 10.1598L5.14199 5.99998L0.971817 1.84013C0.813543 1.68185 0.734406 1.49605 0.734406 1.28273C0.734406 1.0694 0.810102 0.888761 0.961494 0.740808C1.11289 0.592856 1.29525 0.518881 1.50857 0.518881C1.70814 0.518881 1.88705 0.591136 2.04533 0.735647L6.75226 5.42194C6.91742 5.57333 6.99999 5.76601 6.99999 5.99998C6.99999 6.22019 6.91742 6.41287 6.75226 6.57802L2.04533 11.2643C1.90082 11.4088 1.7219 11.4811 1.50857 11.4811Z" fill="#0066CC"/>
</svg>
